<?xml version="1.0" encoding="utf-8"?>
<!-- Generator: Adobe Illustrator 24.0.0, SVG Export Plug-In . SVG Version: 6.00 Build 0)  -->
<svg version="1.1" id="Capa_1" xmlns="http://www.w3.org/2000/svg" xmlns:xlink="http://www.w3.org/1999/xlink" x="0px" y="0px"
	 viewBox="0 0 5102.36 1700.79" style="enable-background:new 0 0 5102.36 1700.79;" xml:space="preserve">
<style type="text/css">
	.st0{fill:#FFFFFF;}
</style>
<g>
	<g>
		<g>
			<path class="st0" d="M718.48,84.48c6.96,17.82,14.3,36.34,21.91,55.38c78.48,2.07,106.74,40.1,106.74,88.04
				c0,95.61-149.39,470.58-250.97,720.06C491.58,699.97,310.83,275.69,310.83,217.43c0-40.55,26.67-75.48,78.67-77.58
				c0.82-0.03,13.69-0.06,26.48-0.07c7.6-19.01,14.93-37.52,21.88-55.31c-44.7,0-374.34,0-437.86,0
				c6.96,17.8,14.27,36.28,21.88,55.3c47.44,0.49,88.9,40.58,111.17,85.12c37.36,77.68,276.38,649.85,380.95,915.77
				c0.22,0.66,0.48,1.29,0.77,1.91h20.27c0.04-0.1,0.07-0.2,0.11-0.3h45.09C717.61,778.04,892.02,342.78,954.7,226.4
				c22.67-44.01,54.88-78.47,105.1-85.36c7.78-19.46,15.27-38.37,22.38-56.56C1003.24,84.48,802.37,84.48,718.48,84.48z"/>
		</g>
		<g>
			<path class="st0" d="M1109.58,1560.93c-7.61,19.04-14.94,37.56-21.91,55.38c83.89,0,284.76,0,363.7,0
				c-7.11-18.19-14.6-37.1-22.38-56.56c-50.22-6.89-82.43-41.35-105.1-85.36c-29.26-54.33-82.87-178.16-145.69-331.81
				c-7.38-18.05-14.89-36.51-22.5-55.32c-66.38-164.06-140.56-354.52-206.27-528.75h-45.09c-0.04-0.1-0.08-0.2-0.11-0.3h-20.27
				c-0.29,0.62-0.55,1.25-0.77,1.91c-52.16,132.65-137.78,341.48-215.13,527.14c-7.8,18.71-15.51,37.18-23.09,55.32
				c-68.04,162.7-125.89,298.28-142.73,333.3c-22.27,44.54-63.72,84.64-111.17,85.12c-7.6,19.02-14.92,37.5-21.88,55.3
				c63.52,0,393.16,0,437.86,0c-6.95-17.79-14.28-36.3-21.88-55.31c-12.79-0.02-25.66-0.04-26.48-0.07
				c-51.99-2.09-78.67-37.03-78.67-77.58c0-32.22,55.29-176.4,122.4-340.78h316.21c55.14,148.65,97.7,279.28,97.7,330.31
				C1216.32,1520.84,1188.06,1558.87,1109.58,1560.93z M825.13,1087.26c48.25-116.96,99.9-238.8,140.23-334.43
				c40.72,100.01,89.12,220.17,132.5,334.43H825.13z"/>
		</g>
	</g>
	<g>
		<g>
			<path class="st0" d="M2230.83,650.23c0,24.76,7.2,38.27,51.32,38.27c76.08,0,98.59-22.06,103.99-71.13
				c0.45-7.2,16.2-6.75,16.2-0.45c-0.45,17.1-2.25,47.72-2.25,83.28c0,4.95-1.81,5.85-6.3,5.85c-27.91,0-149.46-2.25-184.12-2.25
				c-37.36,0-58.52,1.35-67.97,1.35c-4.96,0-4.96-16.65,0-16.65c31.06,0,43.67-12.16,43.67-40.52V440.9
				c0-23.41-10.81-36.46-43.67-36.46c-4.96,0-4.96-17.11,0.9-17.11c9.45,0,32.87,1.35,66.62,1.35c45.92,0,155.31-1.8,164.76-1.8
				c5.4,0,6.3,1.8,6.3,7.2c0,18.91,1.35,50.87,2.7,66.17c0.45,4.95-14.85,5.85-15.75,1.35c-7.2-39.16-28.81-56.72-82.38-56.72
				c-19.36,0-34.67,1.35-50.42,2.7c-1.8,29.26-3.61,73.38-3.61,122.45c67.08,0,74.28-18.91,74.28-46.82c0-7.2,17.1-6.3,17.1-0.45
				c0,4.51-1.8,18.91-1.8,55.82c0,32.41,1.8,47.72,1.8,53.57c0,5.85-17.1,5.85-17.1,0c0-29.26-9.91-47.27-74.28-47.27V650.23z"/>
			<path class="st0" d="M2633.22,389.13c26.11,0,51.77-1.35,69.33-1.35c75.17,0,109.84,38.72,109.84,81.93
				c0,36.01-27.46,73.83-85.53,83.28c22.06,19.36,41.87,39.61,62.58,63.93c49.97,58.52,60.32,71.12,83.28,72.03
				c5.4,0,4.51,17.1,0.45,17.1c-16.2,0-34.65-0.9-53.57-0.9c-20.71,0-28.36-11.25-77.88-73.83c-44.56-57.62-58.07-68.88-63.48-70.68
				c-7.65-0.45-14.85-0.45-23.41-0.45c0,10.35-0.45,80.13-0.45,90.03c0,23.86,11.71,38.72,43.22,38.72c4.96,0,4.96,16.65-0.45,16.65
				c-14.85,0-33.32-1.35-64.38-1.35c-29.26,0-51.77,0.9-67.07,1.35c-4.51,0-4.06-16.65,0-16.65c31.51,0,44.12-12.16,44.12-37.82
				V443.6c0-24.31-8.55-38.71-44.12-38.71c-4.51,0-4.51-17.11,0.45-17.11C2576.94,387.78,2604.86,389.13,2633.22,389.13z
				 M2655.27,542.64c8.1,0.9,18.46,1.35,29.71,1.35c54.47,0,75.63-29.71,75.63-69.77c0-40.51-20.71-69.32-68.88-69.32
				c-13.05,0-24.75,0.9-33.76,1.8C2656.17,437.75,2655.27,498.07,2655.27,542.64z"/>
			<path class="st0" d="M3178.78,706.05c-99.04,0-174.67-73.83-174.67-167.46c0-93.19,75.63-164.31,174.67-164.31
				c98.58,0,176.01,71.13,176.01,164.31C3354.79,632.22,3277.36,706.05,3178.78,706.05z M3303.02,538.58
				c0-93.19-49.07-147.66-124.24-147.66c-74.73,0-122.91,54.47-122.91,147.66c0,93.64,48.17,150.81,122.91,150.81
				C3253.95,689.39,3303.02,632.22,3303.02,538.58z"/>
			<path class="st0" d="M3553.69,384.67c18.9,0,26.1-0.9,32.41-0.9c2.25,0,4.06,0.9,5.85,3.15
				c58.97,75.63,138.2,173.76,191.33,238.59c0-54.02,0-153.96-0.46-185.47c-0.45-31.06-13.95-40.06-44.12-40.06
				c-4.05,0-4.05-17.11,0-17.11c5.4,0,26.56,1.35,54.92,1.35c36.01,0,45.91-1.35,52.67-1.35c4.51,0,4.96,17.11,0,17.11
				c-31.06,0-43.67,9-43.67,40.06v260.2c0,6.3-14.85,8.1-19.81,2.25c-56.71-75.18-153.06-196.28-203.47-257.05
				c0,85.08,0.45,184.12,0.45,198.07c0.45,31.51,13.96,40.52,44.12,40.52c4.06,0,4.06,16.65,0,16.65c-5.39,0-28.36-1.35-57.17-1.35
				c-35.56,0-43.22,1.35-49.97,1.35c-4.94,0-5.39-16.65,0-16.65c31.07,0,43.68-9.01,43.68-40.52V430.14
				c-14.41-17.56-33.77-30.16-54.03-30.16c-4.96,0-4.96-17.11,0-17.11C3513.62,382.87,3532.08,384.67,3553.69,384.67z"/>
			<path class="st0" d="M4077.61,389.58c35.11,0,55.37-1.35,66.17-1.35c4.96,0,4.96,17.11,0,17.11c-31.96,0-41.41,14.85-42.31,38.26
				c-1.36,30.61-2.26,113.89-2.26,207.08c0,24.76,10.36,38.72,44.12,38.72c5.4,0,5.4,16.65-0.45,16.65c-11.25,0-27-1.35-63.03-1.35
				c-35.1,0-58.52,1.35-69.32,1.35c-4.51,0-4.51-16.65,0-16.65c31.96,0,44.12-13.96,44.12-37.37V443.6
				c0-24.76-9.9-38.26-43.67-38.26c-4.95,0-4.95-17.11,0.45-17.11C4022.69,388.23,4041.59,389.58,4077.61,389.58z"/>
			<path class="st0" d="M4574.09,404.43c3.16,3.15,7.65,4.95,10.81,4.95c7.65,0,13.05-7.2,13.05-13.51c0.46-7.2,18.46-5.85,18.01,0
				c-1.8,29.71-0.9,60.77,1.35,91.84c0.45,5.85-17.55,6.75-17.55,0.45c-15.3-57.17-50.42-97.24-118.85-97.24
				c-66.62,0-120.19,51.77-120.19,150.8c0,90.04,49.06,147.66,121.99,147.66c61.23,0,108.95-46.82,120.65-103.99
				c1.35-6.3,18.91-5.4,18.01,0.45c-4.51,30.16-5.4,65.72-4.06,93.64c0.45,6.3-18,6.75-18.45,0c0-6.3-4.06-10.8-9.91-10.8
				c-4.05,0-8.1,1.35-13.51,4.95c-30.16,20.71-59.42,32.41-101.29,32.41c-86.43,0-165.66-69.77-165.66-164.31
				c0-98.59,82.39-167.46,169.27-167.46C4518.73,374.27,4550.69,385.52,4574.09,404.43z"/>
			<g>
				<path class="st0" d="M1899.42,382.42c2.13,5.45,4.37,11.11,6.7,16.94c24,0.63,32.65,12.26,32.65,26.93
					c0,29.24-45.69,143.93-76.76,220.23c-31.99-75.85-87.27-205.61-87.27-223.43c0-12.4,8.16-23.09,24.06-23.73
					c0.25-0.01,4.19-0.02,8.1-0.02c2.32-5.81,4.57-11.48,6.69-16.92c-13.67,0-114.49,0-133.92,0c2.13,5.44,4.37,11.1,6.69,16.91
					c14.51,0.15,27.19,12.41,34,26.04c11.43,23.76,84.53,198.76,116.52,280.09c0.07,0.2,0.15,0.39,0.24,0.58h6.2
					c0.01-0.03,0.02-0.06,0.03-0.09h13.79c42.01-111.4,95.36-244.53,114.53-280.13c6.93-13.46,16.79-24,32.15-26.11
					c2.38-5.95,4.67-11.74,6.84-17.3C1986.52,382.42,1925.08,382.42,1899.42,382.42z"/>
			</g>
			<g>
				<path class="st0" d="M4997.82,689.11c-2.33,5.82-4.57,11.49-6.7,16.94c25.66,0,87.1,0,111.24,0c-2.17-5.56-4.46-11.35-6.85-17.3
					c-15.36-2.11-25.21-12.65-32.15-26.11c-8.95-16.62-25.35-54.49-44.56-101.49c-2.26-5.52-4.55-11.17-6.88-16.92
					c-20.3-50.18-42.99-108.43-63.09-161.72h-13.79c-0.01-0.03-0.02-0.06-0.03-0.09h-6.2c-0.09,0.19-0.17,0.38-0.24,0.58
					c-15.95,40.57-42.14,104.44-65.8,161.23c-2.38,5.72-4.74,11.37-7.06,16.92c-20.81,49.76-38.5,91.23-43.65,101.94
					c-6.81,13.62-19.49,25.89-34,26.04c-2.33,5.82-4.56,11.47-6.69,16.91c19.43,0,120.25,0,133.92,0
					c-2.13-5.44-4.37-11.1-6.69-16.92c-3.91-0.01-7.85-0.01-8.1-0.02c-15.9-0.64-24.06-11.32-24.06-23.73
					c0-9.86,16.91-53.95,37.44-104.23h96.71c16.86,45.47,29.88,85.42,29.88,101.03C5030.47,676.84,5021.83,688.48,4997.82,689.11z
					 M4910.82,544.23c14.76-35.77,30.56-73.04,42.89-102.29c12.45,30.59,27.26,67.34,40.53,102.29H4910.82z"/>
			</g>
		</g>
		<g>
			<path class="st0" d="M2028.21,1015.74l64.71-168.51h24.02l68.96,168.51h-25.4l-19.65-51.04h-70.46l-18.5,51.04H2028.21z
				 M2076.83,946.54h57.13l-17.59-46.65c-5.37-14.18-9.35-25.83-11.96-34.95c-2.14,10.81-5.17,21.53-9.08,32.18L2076.83,946.54z"/>
			<path class="st0" d="M2565.04,949.65v-19.77l71.38-0.12v62.52c-10.96,8.74-22.26,15.31-33.91,19.71
				c-11.65,4.41-23.6,6.61-35.86,6.61c-16.55,0-31.59-3.55-45.11-10.63s-23.74-17.34-30.63-30.74
				c-6.89-13.42-10.35-28.39-10.35-44.94c0-16.4,3.43-31.71,10.29-45.92s16.73-24.77,29.6-31.67c12.88-6.89,27.7-10.35,44.48-10.35
				c12.18,0,23.2,1.98,33.04,5.93c9.84,3.95,17.56,9.45,23.16,16.5c5.6,7.04,9.85,16.24,12.76,27.57l-20.12,5.53
				c-2.53-8.58-5.67-15.33-9.42-20.24c-3.75-4.9-9.12-8.83-16.1-11.78c-6.97-2.95-14.71-4.43-23.22-4.43
				c-10.19,0-19,1.55-26.43,4.66c-7.44,3.09-13.43,7.19-17.99,12.23c-4.56,5.06-8.1,10.62-10.63,16.68
				c-4.29,10.41-6.44,21.72-6.44,33.89c0,15.03,2.59,27.59,7.76,37.71c5.17,10.12,12.7,17.63,22.59,22.53
				c9.89,4.9,20.38,7.35,31.49,7.35c9.66,0,19.08-1.85,28.28-5.57c9.2-3.71,16.17-7.67,20.92-11.89v-31.37H2565.04z"/>
			<path class="st0" d="M3062.33,847.23h22.3v97.36c0,16.94-1.91,30.39-5.75,40.35c-3.83,9.96-10.74,18.05-20.75,24.3
				c-10,6.25-23.12,9.37-39.37,9.37c-15.79,0-28.7-2.73-38.73-8.15c-10.04-5.44-17.2-13.32-21.49-23.63
				c-4.29-10.31-6.44-24.39-6.44-42.24v-97.36h22.3v97.24c0,14.64,1.36,25.42,4.08,32.35c2.72,6.94,7.4,12.29,14.03,16.03
				c6.62,3.77,14.73,5.63,24.31,5.63c16.4,0,28.08-3.71,35.05-11.15c6.97-7.42,10.46-21.72,10.46-42.87V847.23z"/>
			<path class="st0" d="M3408.04,1015.74V847.23h22.29v168.51H3408.04z"/>
			<path class="st0" d="M3751.19,1015.74V847.23h22.29v148.62h82.98v19.89H3751.19z"/>
			<path class="st0" d="M4146.99,1015.74l64.72-168.51h24.01l68.96,168.51h-25.39l-19.67-51.04h-70.44l-18.51,51.04H4146.99z
				 M4195.61,946.54h57.13l-17.59-46.65c-5.35-14.18-9.34-25.83-11.95-34.95c-2.14,10.81-5.16,21.53-9.08,32.18L4195.61,946.54z"/>
			<path class="st0" d="M4605.32,1015.74V847.23h74.71c15.02,0,26.43,1.53,34.25,4.55c7.82,3.02,14.07,8.37,18.73,16.03
				c4.68,7.67,7.01,16.13,7.01,25.4c0,11.95-3.87,22.03-11.6,30.23c-7.74,8.2-19.7,13.41-35.86,15.63
				c5.9,2.83,10.38,5.63,13.45,8.39c6.51,5.97,12.67,13.45,18.49,22.41l29.32,45.86h-28.04l-22.31-35.05
				c-6.51-10.12-11.88-17.85-16.09-23.22c-4.21-5.37-7.99-9.12-11.32-11.26c-3.33-2.14-6.72-3.64-10.16-4.49
				c-2.54-0.53-6.67-0.81-12.42-0.81h-25.86v74.83H4605.32z M4627.62,921.61h47.93c10.19,0,18.16-1.06,23.91-3.17
				c5.75-2.1,10.12-5.47,13.1-10.11c2.99-4.63,4.49-9.68,4.49-15.12c0-7.96-2.89-14.52-8.68-19.65c-5.78-5.13-14.92-7.7-27.41-7.7
				h-53.33V921.61z"/>
		</g>
		<g>
			<g>
				<g>
					<path class="st0" d="M1960.22,1324.44v-121.62h45.63c9.29,0,16.75,1.23,22.36,3.69c5.62,2.46,10.01,6.25,13.2,11.36
						c3.18,5.12,4.77,10.47,4.77,16.06c0,5.2-1.41,10.09-4.23,14.68c-2.82,4.59-7.08,8.3-12.77,11.12
						c7.35,2.16,13.01,5.83,16.96,11.03c3.95,5.21,5.93,11.34,5.93,18.42c0,5.7-1.21,11-3.61,15.89c-2.41,4.89-5.38,8.67-8.92,11.33
						c-3.54,2.65-7.98,4.66-13.32,6.01c-5.34,1.35-11.88,2.03-19.62,2.03H1960.22z M1976.32,1253.93h26.3
						c7.14,0,12.25-0.48,15.35-1.42c4.09-1.22,7.18-3.23,9.25-6.06c2.07-2.82,3.11-6.36,3.11-10.62c0-4.03-0.97-7.59-2.9-10.66
						c-1.94-3.07-4.71-5.17-8.3-6.3c-3.59-1.14-9.76-1.7-18.5-1.7h-24.31V1253.93z M1976.32,1310.09h30.28
						c5.2,0,8.85-0.19,10.95-0.58c3.71-0.67,6.81-1.77,9.29-3.31c2.49-1.56,4.53-3.8,6.14-6.76c1.6-2.95,2.4-6.37,2.4-10.25
						c0-4.53-1.16-8.47-3.48-11.82c-2.32-3.35-5.55-5.7-9.67-7.05c-4.12-1.36-10.05-2.03-17.8-2.03h-28.12V1310.09z"/>
					<path class="st0" d="M2200.86,1324.44v-121.62h87.94v14.35h-71.84v37.25h67.28v14.26h-67.28v41.4h74.66v14.35H2200.86z"/>
					<path class="st0" d="M2426.82,1324.44l46.71-121.62h17.34l49.78,121.62h-18.34l-14.19-36.84h-50.86l-13.35,36.84H2426.82z
						 M2461.92,1274.5h41.23l-12.69-33.68c-3.87-10.23-6.75-18.63-8.63-25.22c-1.55,7.8-3.73,15.54-6.55,23.23L2461.92,1274.5z"/>
					<path class="st0" d="M2759.64,1202.82h16.1v70.27c0,12.23-1.38,21.92-4.15,29.12c-2.76,7.19-7.75,13.03-14.97,17.54
						c-7.21,4.51-16.69,6.76-28.41,6.76c-11.4,0-20.71-1.97-27.96-5.9c-7.25-3.93-12.42-9.6-15.51-17.04s-4.65-17.6-4.65-30.49
						v-70.27h16.1V1273c0,10.56,0.98,18.35,2.94,23.35c1.96,5.01,5.34,8.86,10.13,11.57c4.78,2.71,10.63,4.07,17.55,4.07
						c11.84,0,20.27-2.68,25.3-8.05s7.55-15.68,7.55-30.94V1202.82z"/>
					<path class="st0" d="M2959.8,1324.44v-107.27h-40.07v-14.35h96.4v14.35h-40.24v107.27H2959.8z"/>
					<path class="st0" d="M3193.22,1324.44v-51.52l-46.88-70.1h19.57l23.98,36.67c4.43,6.86,8.54,13.72,12.36,20.57
						c3.65-6.35,8.07-13.52,13.27-21.48l23.55-35.76h18.75l-48.53,70.1v51.52H3193.22z"/>
					<path class="st0" d="M3563.59,1285.37l15.18-1.33c0.72,6.09,2.39,11.07,5.02,14.98c2.63,3.9,6.71,7.05,12.24,9.45
						c5.54,2.4,11.75,3.61,18.66,3.61c6.14,0,11.56-0.91,16.26-2.74c4.7-1.82,8.2-4.32,10.5-7.51c2.29-3.18,3.44-6.65,3.44-10.41
						c0-3.82-1.11-7.15-3.31-10c-2.22-2.85-5.86-5.24-10.96-7.17c-3.26-1.28-10.48-3.25-21.65-5.94c-11.18-2.68-19-5.21-23.48-7.59
						c-5.81-3.04-10.14-6.82-12.99-11.33c-2.85-4.5-4.27-9.55-4.27-15.14c0-6.14,1.74-11.88,5.23-17.21
						c3.48-5.34,8.56-9.39,15.27-12.15c6.69-2.76,14.12-4.15,22.32-4.15c9.01,0,16.96,1.45,23.85,4.36
						c6.88,2.9,12.17,7.17,15.88,12.81c3.71,5.64,5.7,12.04,5.98,19.17l-15.43,1.15c-0.83-7.69-3.64-13.49-8.42-17.41
						c-4.78-3.93-11.86-5.9-21.2-5.9c-9.73,0-16.82,1.79-21.28,5.36c-4.45,3.57-6.68,7.87-6.68,12.89c0,4.37,1.58,7.97,4.73,10.79
						c3.1,2.83,11.19,5.72,24.26,8.67c13.08,2.96,22.05,5.55,26.92,7.76c7.08,3.26,12.31,7.4,15.68,12.4
						c3.38,5.01,5.06,10.78,5.06,17.3c0,6.48-1.85,12.58-5.56,18.29c-3.71,5.73-9.03,10.18-15.96,13.36
						c-6.94,3.19-14.76,4.77-23.44,4.77c-11.01,0-20.23-1.61-27.67-4.82c-7.43-3.21-13.26-8.03-17.5-14.47
						C3566.03,1300.78,3563.81,1293.5,3563.59,1285.37z"/>
					<path class="st0" d="M3839.64,1324.44v-107.27h-40.07v-14.35h96.4v14.35h-40.23v107.27H3839.64z"/>
					<path class="st0" d="M4118.62,1202.82h16.09v70.27c0,12.23-1.38,21.92-4.14,29.12c-2.77,7.19-7.76,13.03-14.98,17.54
						c-7.22,4.51-16.68,6.76-28.41,6.76c-11.39,0-20.72-1.97-27.96-5.9c-7.24-3.93-12.42-9.6-15.51-17.04
						c-3.1-7.44-4.65-17.6-4.65-30.49v-70.27h16.09V1273c0,10.56,0.98,18.35,2.94,23.35c1.97,5.01,5.34,8.86,10.12,11.57
						s10.64,4.07,17.55,4.07c11.84,0,20.27-2.68,25.3-8.05s7.55-15.68,7.55-30.94V1202.82z"/>
					<path class="st0" d="M4287.84,1324.44v-121.62h41.9c9.45,0,16.67,0.58,21.65,1.75c6.97,1.6,12.92,4.51,17.84,8.71
						c6.42,5.42,11.21,12.34,14.4,20.78c3.18,8.43,4.76,18.07,4.76,28.91c0,9.23-1.08,17.41-3.23,24.55
						c-2.16,7.14-4.92,13.04-8.3,17.72c-3.38,4.67-7.06,8.34-11.07,11.03c-4.01,2.68-8.85,4.71-14.52,6.1
						c-5.66,1.38-12.17,2.07-19.53,2.07H4287.84z M4303.94,1310.09h25.96c8.02,0,14.31-0.75,18.88-2.24
						c4.56-1.49,8.2-3.59,10.91-6.3c3.81-3.82,6.79-8.95,8.91-15.39c2.13-6.44,3.2-14.25,3.2-23.44c0-12.71-2.09-22.5-6.27-29.32
						c-4.17-6.83-9.24-11.41-15.22-13.73c-4.31-1.66-11.25-2.49-20.82-2.49h-25.54V1310.09z"/>
					<path class="st0" d="M4539.6,1324.44v-121.62h16.09v121.62H4539.6z"/>
					<path class="st0" d="M4705.5,1265.2c0-20.19,5.42-35.98,16.26-47.4c10.84-11.42,24.83-17.14,41.97-17.14
						c11.23,0,21.35,2.69,30.36,8.06c9.02,5.36,15.89,12.84,20.62,22.43c4.73,9.6,7.09,20.48,7.09,32.65
						c0,12.33-2.49,23.36-7.46,33.1c-4.99,9.74-12.04,17.11-21.16,22.1c-9.13,5.01-18.97,7.52-29.54,7.52
						c-11.44,0-21.68-2.77-30.69-8.3c-9.02-5.53-15.85-13.08-20.49-22.64C4707.82,1286,4705.5,1275.88,4705.5,1265.2z
						 M4722.09,1265.46c0,14.65,3.94,26.2,11.82,34.64c7.88,8.43,17.76,12.65,29.66,12.65c12.11,0,22.07-4.26,29.91-12.78
						c7.82-8.52,11.74-20.6,11.74-36.26c0-9.9-1.67-18.54-5.03-25.93c-3.35-7.38-8.24-13.11-14.68-17.17
						c-6.44-4.07-13.67-6.1-21.69-6.1c-11.39,0-21.19,3.92-29.41,11.74S4722.09,1247.15,4722.09,1265.46z"/>
				</g>
			</g>
		</g>
	</g>
</g>
</svg>
