<?xml version="1.0" encoding="utf-8"?>
<!-- Generator: Adobe Illustrator 24.0.0, SVG Export Plug-In . SVG Version: 6.00 Build 0)  -->
<svg version="1.1" xmlns="http://www.w3.org/2000/svg" xmlns:xlink="http://www.w3.org/1999/xlink" x="0px" y="0px"
	 viewBox="0 0 293.35 49.57" style="enable-background:new 0 0 293.35 49.57;" xml:space="preserve">
<style type="text/css">
	.st0{fill:#101820;}
	.st1{fill:#FFFFFF;}
</style>
<g id="Fondos">
</g>
<g id="Logotipos">
	<g>
		<g>
			<path d="M4.95,0.69c1.85,0,4.29-0.12,4.87-0.12c0.46,0,0.46,1.43,0,1.43c-1.43,0-2.16,0.93-2.16,2.01
				c0,1.51,4.67,12.47,7.38,18.88c2.63-6.45,6.49-16.14,6.49-18.61c0-1.27-0.77-2.28-2.94-2.28c-0.43,0-0.46-1.43,0-1.43
				c0.35,0,3.01,0.12,4.67,0.12c1.39,0,3.94-0.12,4.21-0.12c0.5,0,0.46,1.43,0.04,1.43c-1.58,0-2.55,0.97-3.2,2.24
				c-1.62,3.01-6.14,14.29-9.69,23.71c-0.19,0.54-1.51,0.5-1.7-0.08C10.2,21.01,4.02,6.22,3.06,4.21c-0.58-1.16-1.66-2.2-2.9-2.2
				c-0.39,0-0.39-1.43,0-1.43C0.59,0.58,2.59,0.69,4.95,0.69z"/>
			<path d="M47.15,23.13c0,2.12,0.62,3.28,4.4,3.28c6.53,0,8.46-1.89,8.92-6.1c0.04-0.62,1.39-0.58,1.39-0.04
				c-0.04,1.47-0.19,4.09-0.19,7.14c0,0.42-0.16,0.5-0.54,0.5c-2.39,0-12.82-0.19-15.79-0.19c-3.2,0-5.02,0.12-5.83,0.12
				c-0.43,0-0.43-1.43,0-1.43c2.66,0,3.75-1.04,3.75-3.48V5.17c0-2.01-0.93-3.13-3.75-3.13c-0.43,0-0.43-1.47,0.08-1.47
				c0.81,0,2.82,0.12,5.71,0.12c3.94,0,13.32-0.15,14.13-0.15c0.46,0,0.54,0.15,0.54,0.62c0,1.62,0.12,4.36,0.23,5.68
				c0.04,0.43-1.27,0.5-1.35,0.12c-0.62-3.36-2.47-4.87-7.07-4.87c-1.66,0-2.97,0.12-4.33,0.23c-0.15,2.51-0.31,6.29-0.31,10.5
				c5.75,0,6.37-1.62,6.37-4.02c0-0.62,1.47-0.54,1.47-0.04c0,0.39-0.15,1.62-0.15,4.79c0,2.78,0.15,4.09,0.15,4.6
				c0,0.5-1.47,0.5-1.47,0c0-2.51-0.85-4.05-6.37-4.05V23.13z"/>
			<path d="M81.67,0.69c2.24,0,4.44-0.12,5.95-0.12c6.45,0,9.42,3.32,9.42,7.03c0,3.09-2.36,6.33-7.34,7.14
				c1.89,1.66,3.59,3.4,5.37,5.48c4.29,5.02,5.17,6.1,7.14,6.18c0.46,0,0.39,1.47,0.04,1.47c-1.39,0-2.97-0.08-4.59-0.08
				c-1.78,0-2.43-0.97-6.68-6.33c-3.82-4.94-4.98-5.91-5.45-6.06c-0.66-0.04-1.27-0.04-2.01-0.04c0,0.89-0.04,6.87-0.04,7.72
				c0,2.05,1,3.32,3.71,3.32c0.43,0,0.43,1.43-0.04,1.43c-1.27,0-2.86-0.12-5.52-0.12c-2.51,0-4.44,0.08-5.75,0.12
				c-0.39,0-0.35-1.43,0-1.43c2.7,0,3.78-1.04,3.78-3.24V5.37c0-2.08-0.73-3.32-3.78-3.32c-0.39,0-0.39-1.47,0.04-1.47
				C76.84,0.58,79.24,0.69,81.67,0.69z M83.56,13.86c0.69,0.08,1.58,0.12,2.55,0.12c4.67,0,6.49-2.55,6.49-5.99
				c0-3.48-1.78-5.95-5.91-5.95c-1.12,0-2.12,0.08-2.9,0.15C83.64,4.87,83.56,10.04,83.56,13.86z"/>
			<path d="M128.47,28.46c-8.5,0-14.98-6.33-14.98-14.36c0-7.99,6.49-14.1,14.98-14.1c8.46,0,15.1,6.1,15.1,14.1
				C143.57,22.13,136.92,28.46,128.47,28.46z M139.13,14.1c0-7.99-4.21-12.67-10.66-12.67c-6.41,0-10.54,4.67-10.54,12.67
				c0,8.03,4.13,12.94,10.54,12.94C134.92,27.03,139.13,22.13,139.13,14.1z"/>
			<path d="M160.63,0.73c1.62,0,2.24-0.08,2.78-0.08c0.19,0,0.35,0.08,0.5,0.27c5.06,6.49,11.85,14.91,16.41,20.47
				c0-4.63,0-13.21-0.04-15.91c-0.04-2.66-1.2-3.44-3.78-3.44c-0.35,0-0.35-1.47,0-1.47c0.46,0,2.28,0.12,4.71,0.12
				c3.09,0,3.94-0.12,4.52-0.12c0.39,0,0.43,1.47,0,1.47c-2.66,0-3.75,0.77-3.75,3.44V27.8c0,0.54-1.27,0.69-1.7,0.19
				c-4.86-6.45-13.13-16.84-17.45-22.05c0,7.3,0.04,15.79,0.04,16.99c0.04,2.7,1.2,3.48,3.78,3.48c0.35,0,0.35,1.43,0,1.43
				c-0.46,0-2.43-0.12-4.9-0.12c-3.05,0-3.71,0.12-4.29,0.12c-0.42,0-0.46-1.43,0-1.43c2.67,0,3.75-0.77,3.75-3.48V4.63
				c-1.24-1.51-2.9-2.59-4.63-2.59c-0.43,0-0.43-1.47,0-1.47C157.19,0.58,158.77,0.73,160.63,0.73z"/>
			<path d="M205.57,0.69c3.01,0,4.75-0.12,5.68-0.12c0.43,0,0.43,1.47,0,1.47c-2.74,0-3.55,1.27-3.63,3.28
				c-0.12,2.63-0.19,9.77-0.19,17.76c0,2.12,0.89,3.32,3.78,3.32c0.46,0,0.46,1.43-0.04,1.43c-0.96,0-2.32-0.12-5.41-0.12
				c-3.01,0-5.02,0.12-5.95,0.12c-0.39,0-0.39-1.43,0-1.43c2.74,0,3.78-1.2,3.78-3.21V5.33c0-2.12-0.85-3.28-3.75-3.28
				c-0.43,0-0.43-1.47,0.04-1.47C200.86,0.58,202.48,0.69,205.57,0.69z"/>
			<path d="M248.16,2.59c0.27,0.27,0.66,0.43,0.93,0.43c0.66,0,1.12-0.62,1.12-1.16c0.04-0.62,1.58-0.5,1.55,0
				c-0.15,2.55-0.08,5.21,0.12,7.88c0.04,0.5-1.51,0.58-1.51,0.04c-1.31-4.9-4.32-8.34-10.2-8.34c-5.71,0-10.31,4.44-10.31,12.94
				c0,7.72,4.21,12.67,10.46,12.67c5.25,0,9.35-4.02,10.35-8.92c0.12-0.54,1.62-0.46,1.55,0.04c-0.39,2.59-0.46,5.64-0.35,8.03
				c0.04,0.54-1.54,0.58-1.58,0c0-0.54-0.35-0.93-0.85-0.93c-0.35,0-0.69,0.12-1.16,0.42c-2.59,1.78-5.1,2.78-8.69,2.78
				c-7.41,0-14.21-5.99-14.21-14.1C225.38,5.91,232.44,0,239.9,0C243.41,0,246.15,0.97,248.16,2.59z"/>
			<path d="M271.56,24.14c0,1.51,1.2,2.24,2.93,2.24c0.46,0,0.39,1.47,0,1.47c-0.96,0-2.86-0.12-4.87-0.12
				c-1.93,0-3.47,0.12-4.09,0.12c-0.35,0-0.43-1.47,0-1.47c1.47,0,2.39-0.77,3.47-2.66c0.85-1.51,8.84-21.7,9.31-22.94
				c0.19-0.5,0.46-0.69,1-0.69c0.46,0,0.73,0.19,0.93,0.69c1.04,2.7,8.69,21.2,10.12,23.75c0.85,1.51,1.82,1.85,2.86,1.85
				c0.35,0,0.35,1.47-0.04,1.47c-1,0-2.7-0.12-5.37-0.12c-2.7,0-3.78,0.12-4.75,0.12c-0.39,0-0.43-1.47,0-1.47
				c1.85,0,2.47-0.62,2.47-1.89c0-0.77-0.96-3.48-2.24-6.68c-3.17,0.15-6.95,0.15-10.12,0C272.25,20.58,271.56,23.01,271.56,24.14z
				 M278.08,5.56c-1.16,2.51-2.97,6.91-4.4,10.89c2.66-0.08,6.33-0.12,9.08,0C281.09,12.4,279.12,7.92,278.08,5.56z"/>
		</g>
		<g>
			<path d="M80.09,49.43l3.14-8.17h1.16l3.34,8.17H86.5l-0.95-2.47h-3.41l-0.9,2.47H80.09z M82.45,46.07h2.77l-0.85-2.26
				c-0.26-0.69-0.45-1.25-0.58-1.69c-0.1,0.52-0.25,1.04-0.44,1.56L82.45,46.07z"/>
			<path d="M106.1,46.23v-0.96l3.46-0.01v3.03c-0.53,0.42-1.08,0.74-1.64,0.96c-0.56,0.21-1.14,0.32-1.74,0.32
				c-0.8,0-1.53-0.17-2.19-0.52c-0.66-0.34-1.15-0.84-1.48-1.49c-0.33-0.65-0.5-1.38-0.5-2.18c0-0.79,0.17-1.54,0.5-2.23
				c0.33-0.69,0.81-1.2,1.43-1.53s1.34-0.5,2.16-0.5c0.59,0,1.12,0.1,1.6,0.29c0.48,0.19,0.85,0.46,1.12,0.8
				c0.27,0.34,0.48,0.79,0.62,1.34l-0.98,0.27c-0.12-0.42-0.28-0.74-0.46-0.98s-0.44-0.43-0.78-0.57c-0.34-0.14-0.71-0.21-1.13-0.21
				c-0.49,0-0.92,0.07-1.28,0.23c-0.36,0.15-0.65,0.35-0.87,0.59s-0.39,0.51-0.52,0.81c-0.21,0.51-0.31,1.05-0.31,1.64
				c0,0.73,0.13,1.34,0.38,1.83c0.25,0.49,0.62,0.85,1.09,1.09c0.48,0.24,0.99,0.36,1.53,0.36c0.47,0,0.92-0.09,1.37-0.27
				c0.45-0.18,0.78-0.37,1.01-0.58v-1.52H106.1z"/>
			<path d="M130.2,41.26h1.08v4.72c0,0.82-0.09,1.47-0.28,1.96c-0.19,0.48-0.52,0.88-1.01,1.18c-0.49,0.3-1.12,0.45-1.91,0.45
				c-0.76,0-1.39-0.13-1.88-0.4c-0.49-0.26-0.83-0.65-1.04-1.14c-0.21-0.5-0.31-1.18-0.31-2.05v-4.72h1.08v4.71
				c0,0.71,0.07,1.23,0.2,1.57c0.13,0.34,0.36,0.59,0.68,0.78c0.32,0.18,0.71,0.27,1.18,0.27c0.79,0,1.36-0.18,1.7-0.54
				c0.34-0.36,0.51-1.05,0.51-2.08V41.26z"/>
			<path d="M146.96,49.43v-8.17h1.08v8.17H146.96z"/>
			<path d="M163.59,49.43v-8.17h1.08v7.2h4.02v0.96H163.59z"/>
			<path d="M182.77,49.43l3.14-8.17h1.16l3.34,8.17h-1.23l-0.95-2.47h-3.41l-0.9,2.47H182.77z M185.13,46.07h2.77l-0.85-2.26
				c-0.26-0.69-0.45-1.25-0.58-1.69c-0.1,0.52-0.25,1.04-0.44,1.56L185.13,46.07z"/>
			<path d="M204.98,49.43v-8.17h3.62c0.73,0,1.28,0.07,1.66,0.22c0.38,0.15,0.68,0.41,0.91,0.78c0.23,0.37,0.34,0.78,0.34,1.23
				c0,0.58-0.19,1.07-0.56,1.46c-0.38,0.4-0.95,0.65-1.74,0.76c0.29,0.14,0.5,0.27,0.65,0.41c0.32,0.29,0.62,0.65,0.9,1.09
				l1.42,2.22h-1.36l-1.08-1.7c-0.32-0.49-0.58-0.87-0.78-1.13c-0.2-0.26-0.39-0.44-0.55-0.55c-0.16-0.1-0.33-0.18-0.49-0.22
				c-0.12-0.03-0.32-0.04-0.6-0.04h-1.25v3.63H204.98z M206.06,44.87h2.32c0.49,0,0.88-0.05,1.16-0.15c0.28-0.1,0.49-0.27,0.63-0.49
				c0.14-0.22,0.22-0.47,0.22-0.73c0-0.39-0.14-0.7-0.42-0.95c-0.28-0.25-0.72-0.37-1.33-0.37h-2.58V44.87z"/>
		</g>
	</g>
</g>
</svg>
