<?xml version="1.0" encoding="utf-8"?>
<!-- Generator: Adobe Illustrator 24.0.0, SVG Export Plug-In . SVG Version: 6.00 Build 0)  -->
<svg version="1.1" id="Capa_1" xmlns="http://www.w3.org/2000/svg" xmlns:xlink="http://www.w3.org/1999/xlink" x="0px" y="0px"
	 viewBox="0 0 178.13 185.41" style="enable-background:new 0 0 178.13 185.41;" xml:space="preserve">
<style type="text/css">
	.st0{fill:#101820;}
	.st1{fill:#FFFFFF;}
</style>
<g>
	<g>
		<path class="st0" d="M89.39,6.53c0.78,2,1.61,4.09,2.46,6.23c8.83,0.23,12.01,4.51,12.01,9.9c0,10.76-16.81,52.94-28.24,81.01
			c-11.77-27.9-32.1-75.63-32.1-82.19c0-4.56,3-8.49,8.85-8.73c0.09,0,1.54-0.01,2.98-0.01c0.85-2.14,1.68-4.22,2.46-6.22
			c-5.03,0-42.11,0-49.26,0c0.78,2,1.61,4.08,2.46,6.22c5.34,0.05,10,4.57,12.51,9.58c4.2,8.74,31.09,73.11,42.86,103.03
			c0.02,0.07,0.05,0.14,0.09,0.21h2.28c0-0.01,0.01-0.02,0.01-0.03h5.07C89.3,84.56,108.92,35.59,115.97,22.5
			c2.55-4.95,6.17-8.83,11.82-9.6c0.88-2.19,1.72-4.32,2.52-6.36C121.43,6.53,98.83,6.53,89.39,6.53z"/>
	</g>
	<g>
		<path class="st0" d="M133.4,172.64c-0.86,2.14-1.68,4.23-2.46,6.23c9.44,0,32.04,0,40.92,0c-0.8-2.05-1.64-4.17-2.52-6.36
			c-5.65-0.78-9.27-4.65-11.82-9.6c-3.29-6.11-9.32-20.04-16.39-37.33c-0.83-2.03-1.67-4.11-2.53-6.22
			c-7.47-18.46-15.81-39.89-23.21-59.49h-5.07c0-0.01-0.01-0.02-0.01-0.03h-2.28c-0.03,0.07-0.06,0.14-0.09,0.21
			c-5.87,14.92-15.5,38.42-24.2,59.31c-0.88,2.11-1.74,4.18-2.6,6.22c-7.65,18.3-14.16,33.56-16.06,37.5
			c-2.51,5.01-7.17,9.52-12.51,9.58c-0.86,2.14-1.68,4.22-2.46,6.22c7.15,0,44.23,0,49.26,0c-0.78-2-1.61-4.08-2.46-6.22
			c-1.44,0-2.89,0-2.98-0.01c-5.85-0.24-8.85-4.17-8.85-8.73c0-3.63,6.22-19.85,13.77-38.34h35.57
			c6.2,16.72,10.99,31.42,10.99,37.16C145.4,168.13,142.22,172.41,133.4,172.64z M101.39,119.35c5.43-13.16,11.24-26.87,15.78-37.62
			c4.58,11.25,10.03,24.77,14.91,37.62H101.39z"/>
	</g>
</g>
</svg>
